<?xml version="1.0" encoding="UTF-8"?>
<svg id="Layer_1" data-name="Layer 1" xmlns="http://www.w3.org/2000/svg" xmlns:xlink="http://www.w3.org/1999/xlink" viewBox="0 0 32 32">
  <defs>
    <style>
      .cls-1, .cls-2, .cls-3, .cls-4, .cls-5, .cls-6, .cls-7 {
        stroke-miterlimit: 10;
      }

      .cls-1, .cls-2, .cls-8, .cls-4, .cls-6 {
        fill: #930;
      }

      .cls-1, .cls-2, .cls-4, .cls-5, .cls-6 {
        stroke: #fff;
      }

      .cls-1, .cls-2, .cls-6 {
        stroke-width: .25px;
      }

      .cls-2 {
        filter: url(#drop-shadow-4);
      }

      .cls-3 {
        filter: url(#drop-shadow-2);
      }

      .cls-3, .cls-5, .cls-7 {
        fill: none;
      }

      .cls-3, .cls-7 {
        stroke: #100091;
        stroke-width: .75px;
      }

      .cls-4, .cls-5 {
        stroke-width: .1px;
      }

      .cls-6 {
        filter: url(#drop-shadow-3);
      }

      .cls-7 {
        filter: url(#drop-shadow-1);
      }
    </style>
    <filter id="drop-shadow-1" filterUnits="userSpaceOnUse">
      <feOffset dx="7" dy="7"/>
      <feGaussianBlur result="blur" stdDeviation="60"/>
      <feFlood flood-color="#eef95d" flood-opacity=".4"/>
      <feComposite in2="blur" operator="in"/>
      <feComposite in="SourceGraphic"/>
    </filter>
    <filter id="drop-shadow-2" filterUnits="userSpaceOnUse">
      <feOffset dx="7" dy="7"/>
      <feGaussianBlur result="blur-2" stdDeviation="60"/>
      <feFlood flood-color="#eef95d" flood-opacity=".4"/>
      <feComposite in2="blur-2" operator="in"/>
      <feComposite in="SourceGraphic"/>
    </filter>
    <filter id="drop-shadow-3" filterUnits="userSpaceOnUse">
      <feOffset dx="7" dy="7"/>
      <feGaussianBlur result="blur-3" stdDeviation="60"/>
      <feFlood flood-color="#eef95d" flood-opacity=".4"/>
      <feComposite in2="blur-3" operator="in"/>
      <feComposite in="SourceGraphic"/>
    </filter>
    <filter id="drop-shadow-4" filterUnits="userSpaceOnUse">
      <feOffset dx="7" dy="7"/>
      <feGaussianBlur result="blur-4" stdDeviation="60"/>
      <feFlood flood-color="#eef95d" flood-opacity=".4"/>
      <feComposite in2="blur-4" operator="in"/>
      <feComposite in="SourceGraphic"/>
    </filter>
  </defs>
  <path class="cls-8" d="m26.93,4.75c-.31.49-.14.85.12,1.31.38.68.71,1.39,1.17,2.03.17.23.32.46.47.7.32.52.15.97-.4,1.25-.17.09-.32.12-.46.09-.22-.04-.35-.22-.38-.27-.12-.16-.08-.26-.2-.36-.12-.1-.27-.11-.32-.11-.22-.02-.65-.2-1.53-.85h0s-.19-.02-.54-.24c-.38-.24-.67-.12-.94.16-.68.71-.79,1.69-.3,2.53.22.37.2.76.13,1.15-.06.33.07.45.39.4.59-.09,1.19-.19,1.78-.3.85-.15,1.3.19,1.31,1.01.01.76-.05,1.52.07,2.27.06.39-.07.71-.52.87-.31.11-.56.32-.79.53-.46.43-1.03.37-1.59.41-.04-.52.37-1.16.79-1.32.11-.04.2-.02.31.01.38.13.68.02.77-.35.15-.63.11-1.28.05-1.91-.02-.22-.23-.28-.46-.28-.38,0-.69.17-.99.35-.73.43-1.5.83-2.18,1.33-.22.16-.45.31-.77.19-.23-.08-.42.05-.61.15-1.51.77-3.12,1.26-4.83,1.45-.63.07-1.26.04-1.86.29-.7.29-.76.36-.69,1.06.05.5-.27.82-.63,1.11-.5.41-.89.89-1.2,1.43-.21.36-.09.61.25.81.12.07.23.16.36.2.88.28,1.31.95,1.62,1.71.34.83.24,1.25-.52,1.79-.32-.27-.47-.63-.56-1.02-.03-.12.02-.22.1-.32.31-.39.3-.51-.13-.79-.29-.2-.6-.37-.91-.54-.58-.31-.88-.43-.96-.51-.4-.35-.48-.85-.52-1.18-.18-1.25.73-2.19.6-2.27-.11-.07-.85.69-1.52,1.67-.44.64-.71,1.18-.85,1.46-.37.75-.82,1.86-1.14,3.3-.59-.46-1.46-1.24-2.18-2.41-.67-1.08-1.16-2.22-1.12-2.78.67-.13.69-.11.9.45.44,1.21,1,2.35,1.91,3.32.09.1.15.22.36.25.2-.33.16-.71.21-1.07.04-.27.05-.56,0-.83-.13-.8.19-1.41.82-1.92.84-.69.97-1.5.49-2.44-.46-.89-.67-1.81-.09-2.78-.59.06-.91.48-.97,1.15-.06.65-.1,1.31-.37,1.92-.05.11-.13.29-.29.5-.13.18-.51.64-1.18.9-.37.14-.68.16-.98.19-.74.06-.84-.12-1.49-.12-1.02,0-2.22.4-2.54.73-.05.05-.22.24-.5.28-.07,0-.13,0-.17,0,.26-.37.62-.59.99-.79.92-.49,1.91-.83,2.94-1.05.68-.15,1.29-.41,1.67-1.01.04-.06.08-.15.08-.15.19-.37.3-.68.36-.91-.11.28-.42.98-1.21,1.46-.39.24-.77.35-1.03.4.12-.09.29-.21.52-.36.35-.23.42-.25.6-.39.22-.16.44-.33.6-.61.17-.3.19-.57.21-.8.04-.58-.15-.69-.11-.99.11-.89,1.97-1.81,2.89-1.44.48.19.88.24,1.37-.06.8-.48,1.73-.69,2.65-.91.78-.19,1.55-.38,2.32-.59.55-.15,1.01-.43,1.41-.81.66-.62,1.25-1.3,1.75-2.04.06-.1.15-.19.08-.35-.35.02-.72.07-1.08.07-.14,0-.31-.02-.53-.08-.38-.09-.66-.25-.84-.37.22.06.53.13.9.12.22,0,.42-.03.58-.07-.14-.09-.46-.27-.91-.32-.48-.05-.85.09-1.01.16.37-.18.8-.37,1.3-.53.49-.16.95-.27,1.35-.35-.21-.18-.64-.52-1.29-.7-.74-.2-1.37-.09-1.65-.02.14-.13.54-.46,1.15-.54.36-.05.66,0,.84.06-.06-.07-.14-.16-.26-.23-.38-.23-.81-.14-.91-.12.59-.19,1.02-.17,1.31-.11.25.05.55.15.95.08.13-.02.26-.07.4-.15.62-.35.78-.5,1.14-.58.16-.03.42-.05.77.08,0-.06-.02-.11-.05-.14-.1-.17-.36-.25-.66-.2.12-.07.29-.15.51-.15.14,0,.21.05.31.07.33.1.47-.07,1.22-.18.36-.05.54-.09.68-.06.23.05.44.06.67-.04.25-.11.51,0,.76.09.52.19.78.29.98.23.23-.07.38-.28.69-.71.07-.1.13-.18.16-.24.04.04.15.19.15.4,0,.15-.06.26-.09.31.2-.06.4-.11.59-.17Z"/>
  <path class="cls-8" d="m5.53,11.64c-.65,1.5-.87,3.03-.82,4.6,0,.06-.04.22-.09.42-.16.63-.36,1.13-.51,1.46-.25-1.19-.69-4.22.9-7.48.28-.57,1.3-2.51,3.51-4.27,3.3-2.61,7.17-3.34,11.38-2.36-6.71-.69-11.59,1.68-14.38,7.62Z"/>
  <path class="cls-8" d="m28.63,18.65c.34-1.55.26-3.07-.09-4.58-.01-.06,0-.22.01-.43.03-.58.13-1.06.21-1.38.46,1.11,1.46,3.99.51,7.41-.18.63-.8,2.58-2.5,4.56-2.64,3.07-6.19,4.4-10.37,4.15,6.51-.43,10.7-3.52,12.24-9.72Z"/>
  <g>
    <path class="cls-5" d="m14.04,13.37c-.07.09-.35.46-.25.91.11.52.65.76.87.86.41.19.75.17,1.44.15.44-.02,1.13-.05,1.98-.34.57-.2.86-.3,1.06-.52.54-.59.3-1.77-.44-2.97,0,0,3.07,2.83,3.07,3.37.22-.03.48-.07.76-.16.62-.2,1.06-.51,1.34-.74.67-.39,1.35-.78,2.02-1.17-.49.08-1,.16-1.52.24-.79.12-1.64.23-1.88.23,0,0,1.99-2.19-2.83-3.13l2.64.13s-1.08-2.25,2.99-3.86c0,0-.49,1.03-.52,1.46l.32-.55c0,.06-.05.61.36.92.47.36,1.26.22,1.45-.11.03-.05.06-.15-.02-.51-.06-.24-.23-.59-.44-1.05l2.06,2.46c.07.29-.02.58-.24.73-.12.08-.35.17-.52.08-.21-.11-.11-.36-.33-.53-.2-.16-.39-.03-.67-.16-.15-.07-.32-.2-.46-.51"/>
    <path class="cls-5" d="m14.04,13.37c-.22.12-1.03.59-1.4,1.58-.42,1.14.07,2.1.16,2.28.08.14.13.26.16.35.07.23.05.39.08.7,0,.07.02.2-.04.35-.02.05-.07.19-.18.27-.2.14-.55,0-.83-.13-.3-.13-.69-.3-.99-.64-.74-.83-.44-2.1-.54-2.11-.07,0-.13.73-.33,1.51-.19.73-.45,1.3-.64,1.67"/>
  </g>
  <path class="cls-7" d="m23.92,13.96"/>
  <path class="cls-3" d="m10.37,20.61"/>
  <g>
    <path class="cls-4" d="m25.55,6.6c.37-.01.58.16.67.25.08.08.18.21.16.25-.02.03-.09-.01-.3-.05-.14-.02-.15-.01-.19-.04-.08-.07-.07-.16-.15-.27-.04-.05-.1-.1-.19-.13Z"/>
    <path class="cls-4" d="m25.93,6.78c.07-.09.23.04.16.13s-.23-.04-.16-.13Z"/>
    <circle class="cls-4" cx="26" cy="6.85" r=".02"/>
  </g>
  <path class="cls-6" d="m16.42,7.67s.07,0,.17,0c0,0,.02,0,.04.02.02.02.01.06,0,.07,0,.1.19.13.19.14,0,.01-.11-.01-.24-.04,0,0-.02,0-.04-.02-.03-.02-.03-.05-.04-.08-.03-.08-.09-.08-.08-.1Z"/>
  <path class="cls-1" d="m15.64,6.31s.15-.03.37-.09c.02,0,.05-.01.09,0,.06.02.08.07.09.09.09.15.55.07.56.09,0,.02-.26.05-.56.09-.02,0-.05,0-.09,0-.08-.01-.13-.05-.19-.09-.15-.09-.28-.06-.28-.09Z"/>
  <path class="cls-1" d="m15.07,9.31s.15-.06.35-.15c.02,0,.05-.02.09-.01.06,0,.09.06.11.07.12.13.56-.03.56,0,0,.02-.25.09-.54.18-.02,0-.05.01-.09.01-.09,0-.14-.03-.2-.06-.16-.06-.28-.01-.29-.04Z"/>
  <path class="cls-2" d="m18.99,5.25s.15-.03.37-.09c.02,0,.05-.01.09,0,.06.02.08.07.09.09.09.15.55.07.56.09,0,.02-.26.05-.56.09-.02,0-.05,0-.09,0-.08-.01-.13-.05-.19-.09-.15-.09-.28-.06-.28-.09Z"/>
</svg>