<?xml version="1.0" encoding="UTF-8"?>
<svg id="Layer_1" data-name="Layer 1" xmlns="http://www.w3.org/2000/svg" xmlns:xlink="http://www.w3.org/1999/xlink" viewBox="0 0 32 32">
  <defs>
    <style>
      .cls-1, .cls-2, .cls-3, .cls-4, .cls-5, .cls-6, .cls-7 {
        stroke-miterlimit: 10;
      }

      .cls-1, .cls-2, .cls-4, .cls-5, .cls-6 {
        stroke: #fff;
      }

      .cls-1, .cls-2, .cls-5 {
        stroke-width: .25px;
      }

      .cls-1, .cls-2, .cls-5, .cls-6 {
        fill: #930;
      }

      .cls-2 {
        filter: url(#drop-shadow-4);
      }

      .cls-3 {
        filter: url(#drop-shadow-2);
      }

      .cls-3, .cls-4, .cls-7 {
        fill: none;
      }

      .cls-3, .cls-7 {
        stroke: #100091;
        stroke-width: .75px;
      }

      .cls-4, .cls-6 {
        stroke-width: .5px;
      }

      .cls-5 {
        filter: url(#drop-shadow-3);
      }

      .cls-7 {
        filter: url(#drop-shadow-1);
      }
    </style>
    <filter id="drop-shadow-1" filterUnits="userSpaceOnUse">
      <feOffset dx="7" dy="7"/>
      <feGaussianBlur result="blur" stdDeviation="60"/>
      <feFlood flood-color="#eef95d" flood-opacity=".4"/>
      <feComposite in2="blur" operator="in"/>
      <feComposite in="SourceGraphic"/>
    </filter>
    <filter id="drop-shadow-2" filterUnits="userSpaceOnUse">
      <feOffset dx="7" dy="7"/>
      <feGaussianBlur result="blur-2" stdDeviation="60"/>
      <feFlood flood-color="#eef95d" flood-opacity=".4"/>
      <feComposite in2="blur-2" operator="in"/>
      <feComposite in="SourceGraphic"/>
    </filter>
    <filter id="drop-shadow-3" filterUnits="userSpaceOnUse">
      <feOffset dx="7" dy="7"/>
      <feGaussianBlur result="blur-3" stdDeviation="60"/>
      <feFlood flood-color="#eef95d" flood-opacity=".4"/>
      <feComposite in2="blur-3" operator="in"/>
      <feComposite in="SourceGraphic"/>
    </filter>
    <filter id="drop-shadow-4" filterUnits="userSpaceOnUse">
      <feOffset dx="7" dy="7"/>
      <feGaussianBlur result="blur-4" stdDeviation="60"/>
      <feFlood flood-color="#eef95d" flood-opacity=".4"/>
      <feComposite in2="blur-4" operator="in"/>
      <feComposite in="SourceGraphic"/>
    </filter>
  </defs>
  <path class="cls-6" d="m28.54,8.8c-.15-.24-.3-.47-.47-.7-.46-.64-.79-1.35-1.17-2.03-.26-.46-.43-.82-.12-1.31-.2.06-.4.11-.59.17.03-.05.09-.16.09-.31,0-.21-.11-.35-.15-.4-.04.06-.09.14-.16.24-.3.42-.46.64-.69.71-.21.06-.47-.04-.98-.23-.24-.09-.51-.2-.76-.09-.23.1-.45.1-.67.04-.14-.03-.32,0-.68.06-.75.11-.89.28-1.22.18-.1-.03-.17-.07-.31-.07-.21,0-.39.07-.51.15.3-.04.56.04.66.2.02.03.04.08.05.14-.35-.13-.61-.11-.77-.08-.36.08-.51.23-1.14.58-.15.08-.28.13-.4.15-.4.07-.69-.03-.95-.08-.29-.06-.72-.08-1.31.11.1-.03.53-.12.91.12.12.07.2.15.26.23-.18-.05-.48-.11-.84-.06-.61.08-1.01.41-1.15.54.28-.07.9-.18,1.65.02.65.18,1.08.51,1.29.7-.4.07-.85.18-1.35.35-.5.16-.94.35-1.3.53.16-.07.53-.21,1.01-.16.45.04.77.22.91.32-.16.03-.36.06-.58.07-.37,0-.68-.06-.9-.12.18.12.46.28.84.37.22.05.39.08.53.08.36,0,.73-.04,1.08-.07.07.16-.01.26-.08.35-.5.74-1.08,1.42-1.75,2.04-.41.38-.87.66-1.41.81-.77.21-1.55.4-2.32.59-.92.22-1.85.43-2.65.91-.49.3-.89.25-1.37.06-.93-.37-2.78.55-2.89,1.44-.04.3.15.41.11.99-.01.23-.03.5-.21.8-.16.28-.39.45-.6.61-.19.14-.25.16-.6.39-.22.15-.4.27-.52.36.27-.05.64-.16,1.03-.4.79-.48,1.1-1.19,1.21-1.46-.06.22-.17.54-.36.91,0,0-.04.08-.08.15-.37.6-.98.86-1.67,1.01-.7.15-1.37.36-2.02.63.02.12.04.24.06.36.4-.1.83-.16,1.24-.16.65,0,.75.18,1.49.12.3-.02.61-.04.98-.19.67-.26,1.05-.72,1.18-.9.16-.21.24-.39.29-.5.27-.62.31-1.27.37-1.92.06-.67.38-1.09.97-1.15-.57.96-.36,1.88.09,2.78.48.94.34,1.75-.49,2.44-.62.51-.95,1.12-.82,1.92.04.27.03.56,0,.83-.05.36-.01.74-.21,1.07-.21-.03-.27-.16-.36-.25-.91-.97-1.47-2.11-1.91-3.32-.21-.57-.23-.58-.9-.45-.04.56.45,1.7,1.12,2.78.73,1.17,1.59,1.95,2.18,2.41.31-1.44.77-2.55,1.14-3.3.14-.28.41-.82.85-1.46.67-.98,1.4-1.74,1.52-1.67.13.08-.78,1.01-.6,2.27.05.33.12.83.52,1.18.08.07.39.2.96.51.31.17.62.34.91.54.42.28.44.4.13.79-.08.1-.13.2-.1.32.09.39.25.74.56,1.02.76-.54.86-.96.52-1.79-.31-.76-.74-1.43-1.62-1.71-.13-.04-.24-.13-.36-.2-.35-.2-.46-.45-.25-.81.31-.54.7-1.03,1.2-1.43.36-.29.68-.6.63-1.11-.07-.7-.01-.77.69-1.06.6-.25,1.24-.22,1.86-.29,1.71-.19,3.31-.68,4.83-1.45.19-.1.39-.23.61-.15.32.12.55-.03.77-.19.69-.5,1.45-.9,2.18-1.33.3-.17.61-.35.99-.35.22,0,.44.06.46.28.06.64.1,1.28-.05,1.91-.09.37-.38.48-.77.35-.11-.04-.2-.05-.31-.01-.42.15-.83.8-.79,1.32.56-.04,1.13.02,1.59-.41.23-.21.48-.42.79-.53.45-.16.58-.48.52-.87-.11-.76-.05-1.51-.07-2.27-.01-.81-.46-1.16-1.31-1.01-.59.11-1.18.21-1.78.3-.32.05-.45-.07-.39-.4.07-.39.09-.78-.13-1.15-.5-.84-.38-1.82.3-2.53.27-.28.56-.4.94-.16.35.22.54.24.54.24h0c.88.65,1.31.83,1.53.85.05,0,.2.01.32.11.12.1.08.2.2.36.03.04.16.22.38.27.13.03.28,0,.46-.09.55-.29.72-.73.4-1.25Z"/>
  <path class="cls-6" d="m5.39,11.64c-.65,1.5-.87,3.03-.82,4.6,0,.06-.04.22-.09.42-.16.63-.36,1.13-.51,1.46-.25-1.19-.69-4.22.9-7.48.28-.57,1.3-2.51,3.51-4.27,3.3-2.61,7.17-3.34,11.38-2.36-6.71-.69-11.59,1.68-14.38,7.62Z"/>
  <path class="cls-6" d="m28.49,18.65c.34-1.55.26-3.07-.09-4.58-.01-.06,0-.22.01-.43.03-.58.13-1.06.21-1.38.46,1.11,1.46,3.99.51,7.41-.18.63-.8,2.58-2.5,4.56-2.64,3.07-6.19,4.4-10.37,4.15,6.51-.43,10.7-3.52,12.24-9.72Z"/>
  <g>
    <path class="cls-4" d="m13.9,13.37c-.07.09-.35.46-.25.91.11.52.65.76.87.86.41.19.75.17,1.44.15.44-.02,1.13-.05,1.98-.34.57-.2.86-.3,1.06-.52.54-.59.3-1.77-.44-2.97,0,0,3.07,2.83,3.07,3.37.22-.03.48-.07.76-.16.62-.2,1.06-.51,1.34-.74.67-.39,1.35-.78,2.02-1.17-.49.08-1,.16-1.52.24-.79.12-1.64.23-1.88.23,0,0,1.99-2.19-2.83-3.13l2.64.13s-1.08-2.25,2.99-3.86c0,0-.49,1.03-.52,1.46l.32-.55c0,.06-.05.61.36.92.47.36,1.26.22,1.45-.11.03-.05.06-.15-.02-.51-.06-.24-.23-.59-.44-1.05l2.06,2.46c.07.29-.02.58-.24.73-.12.08-.35.17-.52.08-.21-.11-.11-.36-.33-.53-.2-.16-.39-.03-.67-.16-.15-.07-.32-.2-.46-.51"/>
    <path class="cls-4" d="m13.91,13.37c-.22.12-1.03.59-1.4,1.58-.42,1.14.07,2.1.16,2.28.08.14.13.26.16.35.07.23.05.39.08.7,0,.07.02.2-.04.35-.02.05-.07.19-.18.27-.2.14-.55,0-.83-.13-.3-.13-.69-.3-.99-.64-.74-.83-.44-2.1-.54-2.11-.07,0-.13.73-.33,1.51-.19.73-.45,1.3-.64,1.67"/>
  </g>
  <path class="cls-7" d="m23.78,13.96"/>
  <path class="cls-3" d="m10.23,20.61"/>
  <g>
    <path class="cls-6" d="m25.41,6.6c.37-.01.58.16.67.25.08.08.18.21.16.25-.02.03-.09-.01-.3-.05-.14-.02-.15-.01-.19-.04-.08-.07-.07-.16-.15-.27-.04-.05-.1-.1-.19-.13Z"/>
    <path class="cls-6" d="m25.79,6.78c.07-.09.23.04.16.13s-.23-.04-.16-.13Z"/>
    <circle class="cls-6" cx="25.86" cy="6.85" r=".02"/>
  </g>
  <path class="cls-5" d="m16.28,7.67s.07,0,.17,0c0,0,.02,0,.04.02.02.02.01.06,0,.07,0,.1.19.13.19.14,0,.01-.11-.01-.24-.04,0,0-.02,0-.04-.02-.03-.02-.03-.05-.04-.08-.03-.08-.09-.08-.08-.1Z"/>
  <path class="cls-1" d="m15.5,6.31s.15-.03.37-.09c.02,0,.05-.01.09,0,.06.02.08.07.09.09.09.15.55.07.56.09,0,.02-.26.05-.56.09-.02,0-.05,0-.09,0-.08-.01-.13-.05-.19-.09-.15-.09-.28-.06-.28-.09Z"/>
  <path class="cls-1" d="m14.93,9.31s.15-.06.35-.15c.02,0,.05-.02.09-.01.06,0,.09.06.11.07.12.13.56-.03.56,0,0,.02-.25.09-.54.18-.02,0-.05.01-.09.01-.09,0-.14-.03-.2-.06-.16-.06-.28-.01-.29-.04Z"/>
  <path class="cls-2" d="m18.85,5.25s.15-.03.37-.09c.02,0,.05-.01.09,0,.06.02.08.07.09.09.09.15.55.07.56.09,0,.02-.26.05-.56.09-.02,0-.05,0-.09,0-.08-.01-.13-.05-.19-.09-.15-.09-.28-.06-.28-.09Z"/>
</svg>